<svg width="49" height="48" viewBox="0 0 49 48" fill="none" xmlns="http://www.w3.org/2000/svg">
<g id="phone">
<path id="Vector" d="M44.4396 33.84V39.84C44.4419 40.397 44.3278 40.9483 44.1046 41.4587C43.8815 41.9691 43.5542 42.4272 43.1438 42.8037C42.7333 43.1803 42.2488 43.467 41.7211 43.6454C41.1935 43.8239 40.6344 43.8901 40.0796 43.84C33.9253 43.1713 28.0136 41.0683 22.8196 37.7C17.9873 34.6293 13.8903 30.5323 10.8196 25.7C7.43958 20.4824 5.33611 14.542 4.67962 8.36C4.62965 7.80694 4.69537 7.24952 4.87263 6.72325C5.04988 6.19698 5.33477 5.71338 5.70916 5.30325C6.08355 4.89311 6.53923 4.56542 7.04721 4.34105C7.55518 4.11667 8.10431 4.00053 8.65963 4H14.6596C15.6302 3.99045 16.5712 4.33416 17.3071 4.96707C18.0431 5.59998 18.5238 6.4789 18.6596 7.44C18.9129 9.36014 19.3825 11.2455 20.0596 13.06C20.3287 13.7759 20.3869 14.5538 20.2274 15.3018C20.0679 16.0497 19.6974 16.7362 19.1596 17.28L16.6196 19.82C19.4667 24.8271 23.6125 28.9729 28.6196 31.82L31.1596 29.28C31.7034 28.7423 32.3899 28.3717 33.1379 28.2122C33.8858 28.0527 34.6638 28.1109 35.3796 28.38C37.1942 29.0571 39.0795 29.5268 40.9996 29.78C41.9712 29.9171 42.8584 30.4064 43.4927 31.155C44.127 31.9036 44.464 32.8592 44.4396 33.84Z" stroke="black" stroke-width="2" stroke-linecap="round" stroke-linejoin="round"/>
</g>
</svg>
